<?xml version="1.0" standalone="no"?>
<!DOCTYPE svg PUBLIC "-//W3C//DTD SVG 1.1//EN" "http://www.w3.org/Graphics/SVG/1.1/DTD/svg11.dtd">
<svg xmlns="http://www.w3.org/2000/svg">
<metadata>Generated by Fontastic.me</metadata>
<defs>
<font id="druckshop-premium" horiz-adv-x="512">
<font-face font-family="druckshop-premium" units-per-em="512" ascent="480" descent="-32"/>
<missing-glyph horiz-adv-x="512" />

<glyph glyph-name="ds-01" unicode="&#43;" d="M200 176c-75 0-136 61-136 136 0 75 61 136 136 136 75 0 136-61 136-136 0-75-61-136-136-136z m0 256c-66 0-120-54-120-120 0-66 54-120 120-120 66 0 120 54 120 120 0 66-54 120-120 120z m240-368c-2 0-4 1-6 2l-149 150c-3 3-3 8 0 11 3 3 8 3 11 0l150-149c3-4 3-8 0-12-2-1-4-2-6-2z m-184 240l-112 0c-5 0-8 3-8 8 0 5 3 8 8 8l112 0c5 0 8-3 8-8 0-5-3-8-8-8z m-56-56c-5 0-8 3-8 8l0 112c0 5 3 8 8 8 5 0 8-3 8-8l0-112c0-5-3-8-8-8z"/>
<glyph glyph-name="ds-02" unicode="&#98;" d="M430 233l-40 63c-12 14-31 24-48 24l-43 0 0 22c0 20-16 35-35 35-4 40-37 71-78 71-40 0-74-31-77-71l-7 0c-20 0-36-16-36-35l0-168c0-11 0-20 6-27 3-3 7-5 12-5 1 0 2 0 2 0 2-2 2-8 2-12 0 0 0-1 0-2 0-11 6-16 10-18 5-3 11-3 17-3 3-24 23-42 47-42 24 0 44 18 46 42l104 0c2-24 22-42 46-42 25 0 45 18 47 42l7 0c20 0 35 16 35 35l0 36c1 17-7 41-17 55z m-52 55l40-63c2-3 4-7 6-11l-62 0c-12 0-21 9-21 21l0 71c13 0 29-8 37-18z m-193 146c35 0 64-29 64-64 0-36-29-64-64-64-35 0-64 28-64 64 0 35 29 64 64 64z m-26-356c-17 0-33 15-33 33 0 18 15 33 33 33 18 0 33-14 33-33 0-18-14-33-33-33z m0 80c-22 0-41-16-45-37-5 0-10 0-12 1-1 1-3 1-3 6l0 2c0 7 1 16-5 22-3 2-7 5-13 5-1 0-2 0-2 0-1 1-1 10-1 17l0 167c0 12 9 21 21 21l7 0c4-40 37-71 78-71 41 0 74 31 78 71 12 0 21-9 21-21l0-221-79 0c-3 22-22 38-45 38z m199-80c-17 0-32 15-32 33 0 18 14 33 32 33 18 0 33-14 33-33 0-18-14-33-33-33z m76 64c0-12-10-21-22-21l-8 0c-5 21-23 37-46 37-22 0-40-16-45-37l-15 0 0 185 29 0 0-72c0-20 16-35 35-35l68 0c2-7 4-15 4-21z m-271 200c2 0 4 0 5 2l22 22c1 1 2 3 2 4l0 50c0 4-3 7-7 7-4 0-7-3-7-7l0-47-20-19c-2-3-2-8 0-11 2-1 4-1 5-1z"/>
<glyph glyph-name="ds-14" unicode="&#108;" d="M417 164c-1 1-3 1-4 1-3 0-5-1-7-3-4-6-7-12-12-17-2-3-1-7 1-10 3-2 7-1 10 1 5 6 9 12 13 18 3 4 2 8-1 10z m-38-39c-1 0-3-1-5-2-4-5-10-9-16-13-3-2-4-6-1-9 2-3 6-4 9-2 7 4 12 9 18 14 3 2 3 7 1 10-2 1-4 2-6 2z m62 138c-4 0-7-2-7-6l0-1c0-6 0-12-1-18-1-4 2-8 6-8 4 0 7 2 8 6 1 6 1 13 1 19l0 2c0 4-3 6-7 6z m-5-50c-1 0-2 0-2 0-3 0-5-3-7-6-1-6-4-13-6-19-2-4 0-8 4-10 4-1 8 0 9 4 3 8 5 14 8 21 0 5-2 9-6 10z m-10 95c2-6 4-13 5-20 1-4 4-6 8-6 4 1 7 5 6 8-2 8-3 15-6 22-1 3-4 5-6 5-1 0-2 0-3 0-3-2-5-5-4-9z m-91-212c-1 0-2 0-3-1-6-3-13-5-19-8-4-1-6-5-5-9 2-4 6-5 9-4 7 2 13 4 21 8 3 1 4 5 3 9 0 3-3 5-6 5z m-237 78c-1 3-4 4-6 4-1 0-2 0-3 0-3-2-5-7-3-10 3-6 7-13 11-19 2-3 6-4 9-2 4 3 4 7 2 10-3 5-6 11-10 17z m-12 28c-2 6-4 12-4 20-1 3-4 5-8 5 0 0 0 0-1 0-4-1-7-5-6-8 2-7 3-14 6-21 1-4 5-6 9-5 4 1 6 5 4 9z m200-121c0 0-1 0-1 0-7-1-14-2-20-3-4 0-7-3-7-7 0-4 4-7 8-6 7 0 14 1 22 2 4 1 6 4 6 8-2 3-5 6-8 6z m-52-2c-7 1-14 3-20 4-1 0-1 0-2 0-3 0-6-2-7-5-1-4 1-8 5-9 8-2 15-3 22-4 4-1 7 2 8 6 1 4-2 8-6 8z m-48 14c-7 2-13 5-19 9-1 1-2 1-3 1-2 0-5-1-6-3-2-3-1-8 2-10 6-4 13-7 20-9 3-2 8 0 10 4 0 2-1 6-4 8z m-69 30c5-5 10-10 16-15 3-2 7-2 10 1 3 3 3 7-1 10-5 4-10 9-15 15-1 1-3 2-5 2-1 0-3-1-4-2-4-4-4-8-1-11z m-21 227c3-3 8-1 10 2 4 6 8 11 12 17 2 3 2 7-1 10-2 1-3 2-5 2-2 0-4-1-6-3-4-5-8-12-12-17-2-5-1-9 2-11z m43 40c5 4 11 8 16 12 3 3 4 7 2 10-2 2-4 3-6 3-1 0-2-1-4-1-6-4-12-9-17-14-4-2-4-7-1-10 3-2 7-3 10 0z m-75-139c0-4 3-7 7-7 4 0 7 3 7 7 0 2 0 3 0 4 0 7 0 14 1 21 1 4-2 7-6 8 0 0-1 0-1 0-3 0-6-2-7-6 0-8-1-15-1-22 0-2 0-3 0-5z m13 50c4-1 8 1 9 5 1 6 4 12 7 19 1 4 0 8-4 9-1 0-2 1-3 1-2 0-5-1-6-4-3-7-6-13-7-21-3-4 0-8 4-9z m105 117c6 3 12 5 19 7 4 1 5 5 5 9-1 3-4 4-7 4-1 0-1 0-2 0-7-2-14-4-21-8-3-1-5-5-3-9 1-3 5-5 9-3z m147 0c6-2 12-5 18-9 3-3 8-1 10 2 2 3 1 8-3 10-6 4-12 7-20 10 0 1-1 1-3 1-2 0-5-2-6-4-2-4 0-8 4-10z m57-41c3-3 8-3 11 0 3 2 3 7 0 10-5 6-11 11-16 15-2 1-3 2-5 2-2 0-4-1-6-2-2-4-2-8 1-11 6-4 11-9 15-14z m29-41c2-3 7-5 10-3 3 1 5 6 3 9-3 7-7 13-11 20-2 2-4 3-6 3-1 0-2 0-4-1-3-2-4-6-2-10 3-6 7-12 10-18z m-135 96c6-1 14-2 20-4 4-1 8 2 9 5 1 4-2 8-5 9-7 1-14 3-22 4 0 0 0 0 0 0-4 0-7-3-8-7 0-3 2-6 6-7z m-50 0c6 1 13 2 20 2 4 0 8 3 8 7 0 4-4 7-8 7-7 0-14-1-22-2-4-1-6-4-6-8 0-4 4-7 8-6z m10-89c2 3 2 7 0 11-2 1-3 2-5 2-1 0-4-1-5-2l-93-93c-3-3-3-7 0-11l93-92c2-3 7-3 10 0 2 2 2 7 0 10l-80 80 203 0c4 0 7 3 7 7 0 4-3 7-7 7l-204 0z"/>
<glyph glyph-name="ds-27" unicode="&#120;" d="M64 56c-2 0-4 1-6 2-3 4-3 8 0 12l384 384c4 3 8 3 12 0 3-4 3-8 0-12l-384-384c-2-1-4-2-6-2z m384 0c-2 0-4 1-6 2l-384 384c-3 4-3 8 0 12 4 3 8 3 12 0l384-384c3-4 3-8 0-12-2-1-4-2-6-2z"/>
<glyph glyph-name="ds-28" unicode="&#111;" d="M111 206c-3 0-5 1-6 3l-47 70c-3 4-2 9 1 11 4 3 9 2 11-2l42-62 48 57c3 3 8 4 11 1 3-3 4-8 1-11l-54-65c-2-2-4-2-7-2z m337-4c-2 0-5 2-6 4l-42 62-48-57c-3-3-8-4-11-1-3 4-4 8-1 12l54 65c2 2 4 3 7 3 2 0 5-1 6-3l47-70c3-4 2-9-2-11-1-3-2-4-4-4z m-192-99c-39 0-78 15-107 44-3 3-3 8 0 11 3 4 8 4 11 0 34-33 82-46 127-36 70 17 117 87 105 157-1 4 2 9 6 10 4 1 9-3 10-7 14-77-39-156-118-174-11-3-23-5-34-5z m-145 103c-4 0-7 2-8 6-9 42-3 85 20 122 23 36 58 62 98 71 55 13 112-6 149-47 4-4 3-8 0-12-4-3-8-2-12 1-33 38-84 55-133 43-36-9-68-32-88-64-20-33-27-72-18-110 1-4-1-9-5-10-1 0-2 0-3 0z m142 12c-11 0-22 4-30 12-16 16-16 42 0 59 8 8 19 12 30 12 11 0 21-4 29-12 16-16 16-43 0-59-8-8-18-12-29-12z m0 67c-7 0-14-3-19-7-10-11-10-27 0-37 10-10 27-10 36 0 11 10 11 26 0 37-4 4-10 7-17 7z"/>
<glyph glyph-name="ds-15" unicode="&#116;" d="M164 95c1 1 1 3 1 4 0 3-1 5-3 7-6 4-12 7-17 12-3 2-7 1-10-1-2-3-1-7 1-10 6-5 12-9 18-13 4-3 8-2 10 1z m-39 38c0 1-1 3-2 5-5 4-9 10-13 16-2 3-6 4-9 1-3-2-4-6-2-9 4-7 9-12 14-18 2-3 7-3 10-1 1 2 2 4 2 6z m138-62c0 4-2 7-6 7l-1 0c-6 0-12 0-18 1-4 1-8-2-8-6 0-4 2-7 6-8 6-1 13-1 19-1l2 0c4 0 6 3 6 7z m-50 5c0 1 0 2 0 2 0 3-3 5-6 7-6 1-13 4-19 6-4 2-8 0-10-4-1-4 0-8 4-9 8-3 14-5 21-8 5 0 9 2 10 6z m95 10c-6-2-13-4-20-5-4-1-6-4-6-8 1-4 5-7 8-6 8 2 15 3 22 6 3 1 5 4 5 6 0 1 0 2 0 3-2 3-5 5-9 4z m-212 91c0 1 0 2-1 3-3 6-5 13-8 19-1 4-5 6-9 5-4-2-5-6-4-9 2-7 4-13 8-21 1-3 5-4 9-3 3 0 5 3 5 6z m78 237c3 1 4 4 4 6 0 1 0 2 0 3-2 3-7 5-10 3-6-3-13-7-19-11-3-2-4-6-2-9 3-4 7-4 10-2 5 3 11 6 17 10z m28 12c6 2 12 4 20 4 3 1 5 4 5 8 0 0 0 0 0 1-1 4-5 7-8 6-7-2-14-3-21-6-4-1-6-5-5-9 1-4 5-6 9-4z m-121-200c0 0 0 1 0 1-1 7-2 14-3 20 0 4-3 7-7 7-4 0-7-4-6-8 0-7 1-14 2-22 1-4 4-6 8-6 3 2 6 5 6 8z m-2 52c1 7 3 14 4 20 0 1 0 1 0 2 0 3-2 6-5 7-4 1-8-1-9-5-2-8-3-15-4-22-1-4 2-7 6-8 4-1 8 2 8 6z m14 48c2 7 5 13 9 19 1 1 1 2 1 3 0 2-1 5-3 6-3 2-8 1-10-2-4-6-7-13-9-20-2-3 0-8 4-10 2 0 6 1 8 4z m30 69c-5-5-10-10-15-16-2-3-2-7 1-10 3-3 7-3 10 1 4 5 9 10 15 15 1 1 2 3 2 5 0 1-1 3-2 4-4 4-8 4-11 1z m227 21c-3-3-1-8 2-10 6-4 11-8 17-12 3-2 7-2 10 1 1 2 2 3 2 5 0 2-1 4-3 6-5 4-12 8-17 12-5 2-9 1-11-2z m40-43c4-5 8-11 12-16 3-3 7-4 10-2 2 2 3 4 3 6 0 1-1 2-1 4-4 6-9 12-14 17-2 4-7 4-10 1-2-3-3-7 0-10z m-139 75c-4 0-7-3-7-7 0-4 3-7 7-7 2 0 3 0 4 0 7 0 14 0 21-1 4-1 7 2 8 6 0 0 0 1 0 1 0 3-2 6-6 7-8 0-15 1-22 1-2 0-3 0-5 0z m50-13c-1-4 1-8 5-9 6-1 12-4 19-7 4-1 8 0 9 4 0 1 1 2 1 3 0 2-1 5-4 6-7 3-13 6-21 7-4 3-8 0-9-4z m117-105c3-6 5-12 7-19 1-4 5-5 9-5 3 1 4 4 4 7 0 1 0 1 0 2-2 7-4 14-8 21-1 3-5 5-9 3-3-1-5-5-3-9z m0-147c-2-6-5-12-9-18-3-3-1-8 2-10 3-2 8-1 10 3 4 6 7 12 10 20 1 0 1 1 1 3 0 2-2 5-4 6-4 2-8 0-10-4z m-41-57c-3-3-3-8 0-11 2-3 7-3 10 0 6 5 11 11 15 16 1 2 2 3 2 5 0 2-1 4-2 6-4 2-8 2-11-1-4-6-9-11-14-15z m-41-29c-3-2-5-7-3-10 1-3 6-5 9-3 7 3 13 7 20 11 2 2 3 4 3 6 0 1 0 2-1 4-2 3-6 4-10 2-6-3-12-7-18-10z m96 135c-1-6-2-14-4-20-1-4 2-8 5-9 4-1 8 2 9 5 1 7 3 14 4 22 0 0 0 0 0 0 0 4-3 7-7 8-3 0-6-2-7-6z m0 50c1-6 2-13 2-20 0-4 3-8 7-8 4 0 7 4 7 8 0 7-1 14-2 22-1 4-4 6-8 6-4 0-7-4-6-8z m-89-10c3-2 7-2 11 0 1 2 2 3 2 5 0 1-1 4-2 5l-93 93c-3 3-7 3-11 0l-92-93c-2-2-2-7 0-10 3-2 8-2 11 0l80 80 0-203c0-4 3-7 7-7 4 0 7 3 7 7l0 204z"/>
<glyph glyph-name="ds-16" unicode="&#100;" d="M348 417c-1-1-1-3-1-4 0-3 1-5 3-7 6-4 12-7 17-12 3-2 7-1 10 1 2 3 1 7-1 10-6 5-12 9-18 13-4 3-8 2-10-1z m39-38c0-1 1-3 2-5 5-4 9-10 13-16 2-3 6-4 9-1 3 2 4 6 2 9-4 7-9 12-14 18-2 3-7 3-10 1-1-2-2-4-2-6z m-138 62c0-4 2-7 6-7l1 0c6 0 12 0 18-1 4-1 8 2 8 6 0 4-2 7-6 8-6 1-13 1-19 1l-2 0c-4 0-6-3-6-7z m50-5c0-1 0-2 0-2 0-3 3-5 6-7 6-1 13-4 19-6 4-2 8 0 10 4 1 4 0 8-4 9-8 3-14 5-21 8-5 0-9-2-10-6z m-95-10c6 2 13 4 20 5 4 1 6 4 6 8-1 4-5 7-8 6-8-2-15-3-22-5-3-1-5-4-5-6 0-1 0-2 0-3 2-4 5-6 9-5z m212-91c0-1 0-2 1-3 3-6 5-13 8-19 1-4 5-6 9-5 4 2 5 6 4 9-2 7-4 13-8 21-1 3-5 4-9 3-3 0-5-3-5-6z m-78-237c-3-1-4-4-4-6 0-1 0-2 0-3 2-3 7-5 10-3 6 3 13 7 19 11 3 2 4 6 2 9-3 4-7 4-10 2-5-3-11-6-17-10z m-28-12c-6-2-12-4-20-4-3-1-5-4-5-8 0 0 0 0 0-1 1-4 5-7 8-6 7 2 14 3 21 6 4 1 6 5 5 9-1 4-5 6-9 4z m121 200c0 0 0-1 0-1 1-7 2-14 3-20 0-4 3-7 7-7 4 0 7 4 6 8 0 7-1 14-2 22-1 4-4 6-8 6-3-2-6-5-6-8z m2-52c-1-7-3-14-4-20 0-1 0-1 0-2 0-3 2-6 5-7 4-1 8 1 9 5 2 8 3 15 4 22 1 4-2 7-6 8-4 1-8-2-8-6z m-14-48c-2-7-5-13-9-19-1-1-1-2-1-3 0-2 1-5 3-6 3-2 8-1 10 2 4 6 7 13 9 20 2 3 0 8-4 10-2 0-6-1-8-4z m-30-69c5 5 10 10 15 16 2 3 2 7-1 10-3 3-7 3-10-1-4-5-9-10-15-15-1-1-2-3-2-5 0-1 1-3 2-4 4-4 8-4 11-1z m-227-21c3 3 1 8-2 10-6 4-11 8-17 12-3 2-7 2-10-1-1-2-2-3-2-5 0-2 1-4 3-6 5-4 12-8 17-12 5-2 9-1 11 2z m-40 43c-4 5-8 11-12 16-3 3-7 4-10 2-2-2-3-4-3-6 0-1 1-2 1-4 4-6 9-12 14-17 2-4 7-4 10-1 2 3 3 7 0 10z m139-75c4 0 7 3 7 7 0 4-3 7-7 7-2 0-3 0-4 0-7 0-14 0-21 1-4 1-7-2-8-6 0 0 0-1 0-1 0-3 2-6 6-7 8-1 15-2 23-2 1 1 2 1 4 1z m-50 13c1 4-1 8-5 9-6 1-12 4-19 7-4 1-8 0-9-4 0-1-1-2-1-3 0-2 1-5 4-6 7-3 13-6 21-7 4-3 8 0 9 4z m-117 105c-3 6-5 12-7 19-1 4-5 5-9 5-3-1-4-4-4-7 0-1 0-1 0-2 2-7 4-14 8-21 1-3 5-5 9-3 3 1 5 5 3 9z m0 147c2 6 5 12 9 18 3 3 1 8-2 10-3 2-8 1-10-3-4-6-7-12-10-20-1 0-1-1-1-3 0-2 2-5 4-6 4-2 8 0 10 4z m41 57c3 3 3 8 0 11-2 3-7 3-10 0-6-5-11-11-15-16-1-2-2-3-2-5 0-2 1-4 2-6 4-2 8-2 11 1 4 6 9 11 14 15z m41 29c3 2 5 7 3 10-1 3-6 5-9 3-7-3-13-7-20-11-2-2-3-4-3-6 0-1 0-2 1-4 2-3 6-4 10-2 6 3 12 7 18 10z m-96-135c1 6 2 14 4 20 1 4-2 8-5 9-4 1-8-2-9-5-1-7-3-14-4-22 0 0 0 0 0 0 0-4 3-7 7-8 3 0 6 2 7 6z m0-50c-1 6-2 13-2 20 0 4-3 8-7 8-4 0-7-4-7-8 0-7 1-14 2-22 1-4 4-6 8-6 4 0 7 4 6 8z m89 10c-3 2-7 2-11 0-1-2-2-3-2-5 0-1 1-4 2-5l93-92c3-3 7-3 11 0l92 92c3 3 3 8 0 11-2 2-7 2-10 0l-80-80 0 201c0 4-3 8-7 8-4 0-7-4-7-8l0-203z"/>
<glyph glyph-name="ds-04" unicode="&#63;" d="M256 173c-10 0-17-7-17-17 0-10 7-17 17-17 10 0 17 7 17 17 0 9-7 17-17 17z m0-117c-110 0-200 90-200 200 0 110 90 200 200 200 110 0 200-90 200-200 0-110-90-200-200-200z m0 384c-102 0-184-82-184-184 0-102 82-184 184-184 102 0 184 82 184 184 0 102-82 184-184 184z m0-250c-5 0-8 3-8 8l0 50c0 5 3 8 8 8 23 0 42 19 42 42 0 24-19 43-42 43-23 0-42-19-42-43 0-4-4-8-8-8-5 0-8 4-8 8 0 32 26 59 58 59 32 0 58-27 58-59 0-29-21-53-50-57l0-43c0-5-3-8-8-8z"/>
<glyph glyph-name="ds-17" unicode="&#106;" d="M377 398l-50 0c0 0-1 0-1 0-2 8-8 15-16 15-3 0-8 4-10 9l-4 8c-4 10-15 18-26 18l-21 0c-11 0-23-8-27-18l-4-8c-2-5-7-9-9-9-8 0-15-7-17-15 0 0-1 0-1 0l-57 0c-20 0-35-16-35-35l0-263c0-20 16-35 35-35l242 0c20 0 35 16 35 35l0 262c2 20-14 36-34 36z m-171-7c0 4 3 7 4 7 8 0 18 8 22 18l4 9c2 5 8 9 13 9l21 0c5 0 12-4 13-9l4-9c1-1 1-2 2-3l-11 0c-4 0-8-3-8-7 0-4 4-8 8-8l28 0c1 0 1 0 2 0 1 0 2 0 2 0 2 0 4-2 4-7l0-7c0-4-4-7-8-7l-92 0c-4 0-8 3-8 7z m192-292c0-12-9-21-21-21l-242 0c-12 0-21 9-21 21l0 263c0 12 9 22 21 22l57 0c0-12 10-22 22-22l92 0c12 0 22 10 22 22l50 0c12 0 21-10 21-22l0-263z m-156 171c-4 0-8-3-8-7l0-14-56 0 0 57 42 0c4 0 7 3 7 7 0 4-3 7-6 7l-50 0c-4 0-7-3-7-7l0-71c0-4 3-8 7-8l71 0c4 0 8 4 8 8l0 21c-1 4-4 7-8 7z m16 55l-42-48-19 19c-3 2-7 2-11 0-2-2-2-8 0-10l25-26c2-2 3-4 5-4 0 0 0 0 0 7 2 0 4-1 5 1l46 51c3 3 3 7-1 11-1 2-6 1-8-1z m84-47l-43 0c-4 0-7-4-7-8 0-4 3-7 7-7l43 0c4 0 7 3 7 7 0 4-3 8-7 8z m-100-79l-72 0c-4 0-7-3-7-7l0-71c0-4 3-7 7-7l72 0c4 0 7 3 7 7l0 71c0 4-3 7-7 7z m-8-71l-56 0 0 57 56 0z m108 35l-43 0c-4 0-7-3-7-7 0-4 3-7 7-7l43 0c4 0 7 3 7 7 0 4-3 7-7 7z"/>
<glyph glyph-name="ds-18" unicode="&#107;" d="M413 448l-292 0c-20 0-35-16-35-35l0-29c-12 0-22-10-22-22l0-42c0-12 10-22 22-22l0-56c-12 0-22-10-22-21l0-43c0-12 10-21 22-21l0-29c0-20 16-35 35-35l291 0c20 0 35 16 35 35l0 285c1 19-15 35-34 35z m-335-128l0 42c0 4 4 8 8 8l14 0c4 0 7-4 7-8l0-42c0-4-3-7-7-7l-14 0c-4 0-8 3-8 7z m0-142l0 42c0 4 4 7 8 7l14 0c4 0 7-3 7-7l0-42c0-4-3-8-7-8l-14 0c-4 0-8 4-8 8z m356-50c0-12-10-22-22-22l-291 0c-12 0-22 10-22 22l0 29c12 0 22 9 22 21l0 43c0 12-10 21-22 21l0 57c12 0 22 10 22 22l0 42c0 12-10 22-22 22l0 29c0 12 10 21 22 21l291 0c12 0 22-9 22-21z m-164 242c-59 0-106-48-106-107 0-58 48-106 106-106 60 0 107 48 107 106 0 59-48 107-107 107z m0-200c-51 0-92 42-92 93 0 51 41 93 92 93 52 0 93-42 93-93 0-51-42-93-93-93z m8 128l0 36c0 4-4 7-8 7-4 0-7-3-7-7l0-36c-16-4-29-18-29-36 0-20 16-35 36-35 20 0 35 16 35 35 1 18-11 32-27 36z m-8-56c-12 0-21 9-21 21 0 12 9 22 21 22 12 0 22-10 22-22-1-12-10-21-22-21z m-85-164l-43 0c-4 0-7-3-7-7 0-4 3-7 7-7l43 0c4 0 7 3 7 7 0 4-3 7-7 7z m206 0l-42 0c-4 0-7-3-7-7 0-4 3-7 7-7l42 0c4 0 7 3 7 7 0 4-3 7-7 7z m-121 136c-4 0-7-4-7-8l0-14c0-4 3-7 7-7 4 0 8 3 8 7l0 14c0 4-4 8-8 8z m50 49c0-4 3-7 7-7l15 0c4 0 7 3 7 7 0 4-3 7-7 7l-15 0c-4 0-7-3-7-7z m-99 0c0 4-3 7-7 7l-15 0c-4 0-7-3-7-7 0-4 3-7 7-7l15 0c4 0 7 3 7 7z m89 33c2 0 4 1 5 2l11 11c2 2 2 7 0 10-3 3-8 3-11 0l-10-10c-3-3-3-7 0-11 2-1 4-2 5-2z m-85-68l-11-10c-2-3-2-8 0-11 2-1 4-2 5-2 2 0 4 1 5 2l10 11c3 2 3 7 0 10-2 2-6 2-9 0z m90 0c-2 2-7 2-10 0-3-2-3-7 0-10l10-11c2-1 3-2 5-2 2 0 4 1 5 2 2 3 2 7 0 11z m-90 70c1-1 3-2 5-2 1 0 4 1 4 2 3 3 3 8 0 11l-10 10c-2 3-7 3-10 0-3-2-3-7 0-10z"/>
<glyph glyph-name="ds-05" unicode="&#61;" d="M431 357l-350 0c-5 0-8 3-8 8 0 5 3 8 8 8l350 0c5 0 8-3 8-8 0-5-3-8-8-8z m-175-17c-5 0-8 3-8 8l0 50c0 5 3 8 8 8 5 0 8-3 8-8l0-50c0-5-3-8-8-8z m-126-234c-41 0-74 34-74 75 0 5 3 8 8 8l134 0c4 0 8-3 8-8 0-41-34-75-76-75z m-57 67c4-29 29-51 58-51 30 0 55 23 59 51z m309-67c-42 0-75 34-75 75 0 5 3 8 8 8l133 0c5 0 8-3 8-8 0-41-34-75-74-75z m-59 67c4-29 29-51 59-51 29 0 54 23 58 51z m-142 0c-3 0-7 2-8 5l-43 156-42-156c-1-4-6-6-10-5-4 1-6 5-5 9l50 184c1 4 4 6 8 6 4 0 7-2 8-6l51-184c0-4-2-8-6-9-2 0-2 0-3 0z m150 0c-1 0-1 0-2 0-4 1-7 5-6 9l51 184c0 4 4 6 8 6 4 0 6-2 8-6l50-184c1-4-2-8-6-9-4-1-8 1-9 5l-43 156-42-156c-2-3-6-5-9-5z"/>
<glyph glyph-name="ds-06" unicode="&#80;" d="M250 159c-4 0-7 0-9-1l0-60c1 0 5 0 7 0 18 0 31 10 31 32 0 19-11 29-29 29z m-80 0c-4 0-7-1-8-1l0-27c1-1 4-1 7-1 11 0 17 6 17 16 0 8-5 13-16 13z m225 197c0 2-1 3-1 5l-75 85c-1 0-1 0-1 1 0 0 0 0-1 0-1 0-1 1-2 1 0 0 0 0-1 0 0 0 0 0-1 0l-181 0c-8 0-15-6-15-15l0-354c0-8 6-15 15-15l249 0c8 0 15 6 15 15l0 276c-1 0-1 1-1 1z m-197-231c-7-7-17-10-29-10-3 0-5 0-7 1l0-33-21 0 0 90c6 1 15 1 28 1 13 0 21-2 28-7 5-5 9-12 9-21 1-8-2-16-8-21z m88-31c-10-8-24-12-43-12-10 0-18 0-23 1l0 90c7 1 18 1 28 1 18 0 29-3 38-9 9-7 15-19 15-35 0-17-7-29-15-36z m84 63l-35 0 0-21 33 0 0-17-33 0 0-37-21 0 0 92 56 0z m-238 35l0 241 174 0 0-77c0-4 4-7 8-7l66 0 0-157z m202 94c-1 0-12 1-28 1-4 0-10 0-15 0-32 24-58 48-73 62 0 1 1 2 1 3 2 20 0 33-6 39-4 4-10 6-15 4-4-1-11-5-13-12-3-8 1-17 12-29 0 0 4-4 9-9-4-19-14-62-20-82-12-6-22-14-30-23l-1-1 0-1c-1-1-5-10-1-17 1-3 4-6 7-7l1 0c0 0 0 0 2 0 6 0 22 3 30 33l3 8c29 15 65 19 92 20 13-10 27-19 40-27l1 0c0 0 6-3 12-3 10 0 17 5 20 16l0 1c0 5-1 11-4 15-10 9-24 9-24 9z m-171-61c0 0 0 1 0 0-1 1 0 5 1 8 5 5 10 10 17 14-6-20-15-22-18-22z m41 137c-10 12-10 16-9 19 1 3 5 4 5 4 2 1 3 1 4-1 2-2 5-10 4-26-2 3-4 4-4 4z m-5-92c5 20 12 48 16 66 13-13 34-30 58-50-23-2-50-7-74-16z m150-7c-2-6-5-7-8-7-3 0-7 2-8 2-9 5-18 12-27 18 16 0 26-1 26-1 2 0 11-1 14-5 3-2 3-4 3-7z"/>
<glyph glyph-name="ds-19" unicode="&#110;" d="M382 261c-42 95-120 184-121 185-2 1-3 2-6 2-2 0-4-1-5-2-1-1-79-90-120-184-8-19-13-39-13-60 0-76 62-138 139-138 77 0 139 62 139 138 0 21-5 41-13 59z m-126-183c-69 0-125 56-125 124 0 19 4 36 12 54 35 78 94 153 112 174 19-21 79-96 113-174 8-17 12-34 12-53 1-69-55-125-124-125z m-78 120c0 12 3 24 8 34 2 3 0 8-3 10-3 1-8 0-9-4-7-12-10-26-10-40 0-26 10-50 29-68 1-1 3-1 5-1 1 0 4 1 4 2 3 3 3 7 0 11-16 13-24 33-24 56z"/>
<glyph glyph-name="ds-20" unicode="&#42;" d="M89 81c-2 0-4 1-5 2-2 3-2 7 0 10l211 211c3 2 7 2 10 0 2-2 2-7 0-10l-211-211c-2-1-4-2-5-2z m129-16c-35 0-72 13-112 38-1 0-2 1-2 2-42 63-51 121-27 171 65 137 351 170 363 171 2 0 4-1 6-2 1-1 2-3 2-6-2-15-44-374-230-374z m-104 49c37-23 72-35 104-35 158 0 207 297 215 353-50-6-288-45-343-162-22-45-13-97 24-156z m130 37l-92 0 0 92c0 4 3 7 7 7 4 0 7-3 7-7l0-77 78 0c4 0 7-4 7-8 0-4-4-7-7-7z m56 71l-78 0 0 77c0 4 4 7 8 7 4 0 7-3 7-7l0-63 63 0c4 0 7-3 7-7 0-4-3-7-7-7z m28 70l-35 0 0 35c0 4 3 7 7 7 4 0 7-3 7-7l0-21 21 0c4 0 7-3 7-7 0-4-3-7-7-7z"/>
<glyph glyph-name="ds-07" unicode="&#73;" d="M268 153c-3 0-6 0-7-1l0-45c1 0 3 0 5 0 14 0 24 7 24 24 0 15-9 22-22 22z m70 0c-3 0-5 0-7-1l0-45c2 0 3 0 6 0 13 0 23 7 23 24 0 15-8 22-22 22z m57 203c0 2-1 3-1 5l-75 85c-1 0-1 0-1 1 0 0 0 0-1 0-1 0-1 1-2 1 0 0 0 0-1 0 0 0 0 0-1 0l-181 0c-8 0-15-6-15-15l0-354c0-8 6-15 15-15l249 0c8 0 15 6 15 15l0 276c-1 0-1 1-1 1z m-233-260l-16 0 0 68 16 0z m70 0l-16 0-14 26c-4 8-9 16-12 24 0-8 0-18 0-29l0-21-14 0 0 68 18 0 15-25c4-7 8-16 11-23-1 9-2 18-2 29l0 20 14 0z m62 8c-7-6-18-9-31-9-8 0-13 1-17 1l0 67c5 1 12 2 20 2 13 0 22-3 28-7 8-6 12-14 12-26 0-13-5-22-12-28z m71 0c-7-6-19-9-31-9-8 0-14 1-18 1l0 67c6 1 13 2 21 2 13 0 21-3 28-7 7-6 11-14 11-26 0-13-5-22-11-28z m-233 88l0 241 174 0 0-77c0-4 4-7 8-7l66 0 0-157z m88 146l0-100-22 0 0 100z m89 6l0-84c0-8 0-17 1-22l-20 0-2 11c-5-8-14-12-22-12-18 0-32 14-32 37 0 25 16 39 33 39 9 0 16-3 19-8l0 39z m-23-64c0 1 0 3 0 4-1 6-6 11-13 11-11 0-16-9-16-21 0-12 6-20 15-20 6 0 12 5 13 12 1 1 1 3 1 5l0 9z"/>
<glyph glyph-name="ds-08" unicode="&#65;" d="M238 162c-1-5-3-12-4-18l-6-20 21 0-6 20c-1 6-3 13-5 18z m157 194c0 2-1 3-1 5l-75 85c-1 0-1 0-1 1 0 0 0 0-1 0-1 0-1 1-2 1 0 0 0 0-1 0 0 0 0 0-1 0l-181 0c-8 0-15-6-15-15l0-354c0-8 6-15 15-15l249 0c8 0 15 6 15 15l0 276c-1 0-1 1-1 1z m-136-271l-7 24-26 0-7-24-21 0 28 93 28 0 29-93z m56 0l-21 0 0 93 21 0z m-183 107l0 241 174 0 0-77c0-4 4-7 8-7l66 0 0-157z m84 72l-8-28-26 0 34 109 32 0 34-109-27 0-8 28z m27 18l-7 24c-2 6-4 14-6 20-1-6-3-14-4-20l-7-24z m77 55c0-7-5-12-14-12-8 0-12 5-12 12 0 7 4 13 12 13 9 0 14-6 14-13z m-26-101l0 79 25 0 0-79z"/>
<glyph glyph-name="ds-21" unicode="&#112;" d="M109 173c-2 0-3 1-5 1-2 2-2 4-2 7l13 45c0 0 1 1 2 2l179 180c2 2 6 2 9 0l32-32c2-2 2-6 0-9l-179-180c0-1-1-1-2-1l-45-13c-1 0-1 0-2 0z m18 48l-9-32 32 9 174 173-23 23z m27-35c-2 0-4 0-5 1l-32 32c-3 3-3 7 0 9 2 2 6 2 9 0l32-32c2-2 2-6 0-9-1-1-3-1-4-1z m236-20l-192 0c-3 0-6 4-6 7 0 3 3 6 6 6l192 0c4 0 7-3 7-6 0-3-3-7-7-7z m0 52l-128 0c-3 0-6 3-6 6 0 3 3 6 6 6l128 0c4 0 7-3 7-6 0-3-3-6-7-6z m52-116l-372 0c-3 0-6 4-6 7l0 205c0 3 3 6 6 6l141 0c3 0 7-3 7-6 0-4-4-7-7-7l-134 0 0-192 358 0 0 192-160 0c-3 0-6 3-6 7 0 3 3 6 6 6l167 0c3 0 6-3 6-6l0-205c0-3-3-7-6-7z m-167 205c-1 0-3 1-5 2l-32 32c-2 2-2 6 0 9 3 2 7 2 9 0l32-32c3-3 3-7 0-9-1-1-2-2-4-2z m-77 32c-1 0-3 1-4 2-3 2-3 6 0 9l51 51c1 1 2 1 5 1 1 0 3 0 4-1l21-22c3-2 3-6 0-9-2-2-6-2-9 0l-16 18-47-46c-1-2-3-3-5-3z"/>
<glyph glyph-name="ds-22" unicode="&#115;" d="M275 102l-121 0c-48 0-90 42-90 90l0 51c0 85 55 115 102 115l52 0c19 0 38-12 38-32l0-12c0-21-20-32-38-32l-28 0c-6-13-25-52-56-52-3 0-6 4-6 7 0 3 3 6 6 6 24 0 40 34 45 47 1 3 3 4 7 4l32 0c12 0 25 7 25 20l0 12c0 12-13 20-25 20l-52 0c-15 0-89-5-89-103l0-51c0-41 36-77 77-77l121 0c3 0 7-3 7-6 0-3-4-7-7-7z m64 52l-64 0c-3 0-6 3-6 6 0 3 3 6 6 6l64 0c10 0 19 10 19 20 0 9-9 19-19 19l-109 0c-3 0-6 3-6 6 0 3 3 7 6 7l109 0c17 0 32-16 32-32 0-17-15-32-32-32z m-66-52l-23 0c-4 0-7 4-7 7 0 3 3 6 7 6l23 0c9 0 15 10 15 19 0 10-5 20-15 20l-43 0c-3 0-6 3-6 6 0 3 3 6 6 6l43 0c16 0 28-13 28-32 0-18-12-32-28-32z m169 231l-196 0c-4 0-7 3-7 6 0 3 3 7 7 7l196 0c3 0 6-4 6-7 0-3-3-6-6-6z m-26-128l-230 0c-17 0-32 15-32 32l0 11c0 3 3 6 6 6 3 0 6-3 6-6l0-11c0-10 10-19 20-19l230 0c10 0 19 9 19 19l0 141c0 9-9 19-19 19l-234 0c-9 0-16-6-16-15l0-30c0-3-3-6-6-6-3 0-6 3-6 6l0 30c0 16 12 28 28 28l234 0c17 0 32-16 32-32l0-141c0-17-15-32-32-32z m-13 89l-51 0c-3 0-6 4-6 7 0 3 3 6 6 6l51 0c3 0 7-3 7-6 0-3-4-7-7-7z"/>
<glyph glyph-name="ds-09" unicode="&#99;" d="M195 192c1 0 1 0 2 1 1 0 3-1 5-1l170 0c10 0 22 8 26 18l47 116c2 5 1 11-1 16-3 4-8 7-14 7l-264 0c-6 0-12-3-15-7-3-4-5-10-3-16l29-114c1-3 2-6 5-10-6-4-12-10-16-21-2-6-3-14 2-20 3-5 10-11 26-11l206 0c4 0 7 4 7 8 0 4-3 7-7 7l-206 0c-4 0-11 1-13 5-2 2-2 5-1 7 5 13 14 15 15 15z m-33 138c0 1 0 2 0 4 1 0 2 1 4 1l263 0c1 0 2 0 2-1 0 0 0-1 0-2l-46-116c-2-5-8-9-13-9l-170 0c-5 0-10 4-11 9z m-9 39l-14 47c-6 26-26 33-35 32l-30 0c-4 0-8-3-8-7 0-4 4-7 8-7l30 0c2 0 16 0 22-22l14-47c1-3 4-5 7-5 1 0 2 0 3 0 2 2 4 6 3 9z m41-234c-20 0-35-16-35-35 0-20 16-35 35-35 20 0 36 16 36 35 0 19-16 35-36 35z m0-57c-12 0-21 10-21 22 0 12 9 22 21 22 12 0 22-10 22-22-1-12-10-22-22-22z m171 57c-20 0-35-16-35-35 0-20 16-35 35-35 20 0 35 16 35 35 0 19-15 35-35 35z m0-57c-12 0-22 10-22 22 0 12 10 22 22 22 12 0 21-10 21-22 0-12-9-22-21-22z"/>
<glyph glyph-name="ds-10" unicode="&#117;" d="M424 114c-7 24-67 57-94 70-2 1-4 1-6 0l-68-33-60 32c-2 1-4 1-6 0-24-9-94-42-101-69-5-20-7-29-7-30 0-1 0-1 0-2 0-9 4-14 8-16 6-2 13-2 20-2 2 0 4 0 5 0l283 0c2 0 4 0 6 0 2 0 4 0 6 0 5 0 21 0 21 18 0 8-1 12-7 32z m-14-36c-2 0-4 0-6 0-2 0-5 0-6 0l-283 0c-1 0-3 0-5 0-1 0-3 0-4 0-2 0-8 0-9 1-1 0-1 1-2 3 1 3 3 12 7 28 4 16 55 44 91 60l61-33c1-1 4-1 6 0l67 33c40-18 80-47 84-60 7-20 7-22 7-28-1-3-1-4-8-4z m-228 188c4-9 8-16 12-23 2-2 3-4 4-6 5-7 10-13 15-18 0-7-2-15-3-21 0-4 2-8 5-9 4-1 8 1 9 5 2 8 3 20 3 28 0 2-1 4-3 5-5 3-9 8-14 15-1 3-2 4-4 7-4 8-8 14-12 24-1 2-4 5-7 5-1 0-2 0-3 3-7 13-10 33-9 37 0 0 1 0 3 0 2 0 4 0 5 2 2 2 3 3 3 6-2 40 13 62 26 73 2 3 3 6 2 8 0 0 0 0 0 1 6 4 16 4 16 4l0 7 5 4c-1 1 1 4 2 6 4-3 9-6 14-7 15-4 25-8 31-12 31-12 47-42 45-84 0-2 1-4 2-5 1-2 3-3 5-3 1 0 1 0 1 0 2-4-1-24-9-37 0-2-3-3-3-3-2 0-5-3-5-5-4-10-8-17-13-24-2-3-3-5-4-7-4-8-8-12-12-16-2-1-3-3-3-5 0-7 1-19 4-30 0-3 4-5 6-5 1 0 2 0 2 0 4 1 5 5 4 9-2 8-3 18-3 23 5 4 9 10 13 16 2 3 2 5 4 7 5 7 9 14 13 24 4 1 7 5 9 9 8 15 13 39 10 48-2 4-4 7-8 8 0 45-20 80-54 92-6 4-17 8-32 12-7 1-10 4-11 5 0 2-1 3-3 5 0 4-2 4-3 4-7-2-11-10-14-14-1-3-1-4-1-7-10-1-23-5-27-19-1-1-1-2 0-4-12-14-24-36-24-71-4-2-7-4-9-9-3-10 2-34 10-49 2-4 6-7 10-9z"/>
<glyph glyph-name="ds-23" unicode="&#64;" d="M262 64c0 0-1 0-2 1l-192 89c-2 1-4 4-4 6l0 205c0 2 1 4 3 5 2 1 4 2 7 1l192-83c2-1 4-3 4-6l0-211c0-2-1-4-4-5-1-2-2-2-4-2z m-185 100l179-83 0 197-179 77z m185-100c0 0-2 0-3 1-1 1-3 3-3 5l0 212c0 2 2 4 4 5l179 83c2 1 4 1 7 0 1-1 3-4 3-6l0-204c0-2-2-5-3-6l-180-89c-2-1-3-1-4-1z m7 214l0-197 166 83 0 190z m-199 80c-2 0-4 2-5 4-2 4 0 8 3 8l192 77c2 1 3 1 5 0l179-77c3-1 5-4 3-8-1-4-5-5-9-4l-176 76-189-75c-1-1-2-1-3-1z m110 56l178-83-6-12-177 83z m31-254c-1 0-1 0-2 1l-90 38c-2 1-4 3-4 6l0 83c0 2 1 4 3 6 2 0 4 1 7 0l89-38c3-1 4-3 4-6l0-83c0-2 0-4-3-5-1-2-2-2-4-2z m-83 49l77-33 0 70-77 32z"/>
<glyph glyph-name="ds-24" unicode="&#119;" d="M178 85c-2 0-5 1-7 3l-104 104c-4 4-4 10 0 14 4 4 11 4 15 0l96-96 252 313c3 5 10 5 14 2 5-3 5-11 2-15l-260-321c-2-3-4-4-8-4z"/>
<glyph glyph-name="ds-11" unicode="&#104;" d="M409 292l-54-36 0 73c0 4-3 7-7 7l-185 0c-4 0-7-3-7-7l0-73-53 36c-3 2-8 2-9-2-3-3-2-8 1-9l133-91c8-5 18-8 27-8 10 0 20 3 27 8l135 90c3 2 4 6 1 10-2 4-6 4-9 2z m-134-90c-10-8-29-8-39 0l-67 45c1 1 1 3 1 3l0 72 170 0 0-72c0-1 1-2 1-3z m162 117l-154 119c-7 5-17 8-27 8-10 0-20-3-27-8l-155-119c-5-5-10-14-10-22l0-195c0-20 16-36 35-36l313 0c20 0 35 16 35 36l0 195c1 8-4 17-10 22z m-3-218c0-12-10-22-22-22l-313 0c-12 0-21 10-21 22l0 196c0 4 2 9 4 11l155 118c5 4 11 6 18 6 7 0 14-2 19-6l154-118c2-2 6-8 6-11z m-128 192l-100 0c-4 0-7-3-7-7 0-4 3-8 7-8l100 0c4 0 7 4 7 8 0 4-3 7-7 7z m0-28l-100 0c-4 0-7-3-7-7 0-4 3-8 7-8l100 0c4 0 7 4 7 8 0 4-3 7-7 7z"/>
<glyph glyph-name="ds-25" unicode="&#121;" d="M448 132c-1 7-6 13-14 18l-84 58c-4 3-10 5-15 5-8 0-16-4-21-11l-21-31c-2-2-3-5-3-8-8-1-32-1-72 39-39 39-57 68-55 85 1 0 1 1 1 1 2 1 4 2 6 2l30 24c11 8 13 24 5 35l-62 83c-12 16-25 18-40 5-9-8-25-27-31-39-3-7-5-13-4-20-2-9-7-36 1-75 11-52 41-101 89-148 80-77 150-89 185-89 21 0 35 4 42 7 6 0 12 1 18 5 11 6 31 23 38 32 5 8 8 15 7 22z m-19-13c-7-8-24-23-35-29-1 0-2-1-4-1-9 4-26 13-32 19-2 3-7 3-10 1-3-3-3-7-1-11 5-5 13-11 21-15-6-1-15-2-26-2-33 0-100 11-176 85-108 106-87 200-84 211 0 1 0 1 0 3-1 4 0 7 2 11 6 11 20 28 28 35 4 4 7 5 10 5 0 0 4 0 9-7l61-83c4-5 3-12-2-16l-30-23c0 0 0 0-1 0-8 7-18 16-22 21-3 3-7 4-10 3-3-3-4-7-2-10 5-7 16-17 23-22-6-24 13-55 58-100 36-36 64-44 79-44 7 0 12 1 14 3 2 1 3 3 3 5 0 0 0 2 0 4 0 0 0 2 0 3l22 30c3 5 10 6 15 3l85-58c5-3 7-6 8-9 2-4 1-7-3-12z m-181 244c55-17 98-60 116-115 1-3 4-5 7-5 1 0 2 0 3 0 4 1 5 5 4 9-19 60-66 106-126 125-4 1-8-1-9-5-1-4 1-8 5-9z m10 53c83-20 146-86 161-170 1-4 4-6 7-6 1 0 1 0 2 0 4 1 6 5 6 8-16 90-84 161-173 182-4 0-8-2-9-6-1-3 2-7 6-8z"/>
<glyph glyph-name="ds-12" unicode="&#122;" d="M404 241c7 5 12 13 12 24 0 16-14 29-30 29l-68 0c5 24 10 68 10 84 0 29-16 35-30 35-8 0-24-4-24-30 0-35-52-110-62-125l-10 0c-1 3-2 5-4 7-3 3-8 5-12 5l-72 0c-9 0-17-8-17-17l0-136c0-10 8-18 17-18l54 0c10 0 18 8 19 17l15 131 13 0c2 0 4 1 5 3 2 4 66 91 66 133 0 13 4 18 12 18 10 0 18-3 18-24 0-19-6-71-11-87-1-2 0-4 1-6 0-2 3-2 4-2l76 0c10 0 18-8 18-18 0-10-8-18-18-18l-12 0c-3 0-5-2-5-5 0-3 2-6 5-6l12 0c10 0 18-8 18-17 0-10-8-18-18-18l-5 0c-1 0-2 0-2 0-1 0-2 0-4 0l-5 0c-4 0-6-2-6-6 0-3 2-5 6-5l5 0c10 0 18-8 18-18 0-9-9-19-19-19l-5 0c-1 0-2 0-2 0-1 0-1 0-1 0l-6 0c-3 0-6-2-6-6 0-3 3-5 6-5 8 0 15-7 15-15 0-8-8-16-17-16l-86 0c-22 0-42 3-48 6l-12 6c-3 1-6 0-8-3-2-3 0-6 2-8l12-5c9-4 34-7 53-7l86 0c16 0 29 12 29 27 0 5-1 11-4 16 12 3 23 14 23 28 0 8-3 15-8 20 11 4 19 16 19 28 0 9-5 18-12 23z m-230-123c0-4-4-7-7-7l-53 0c-4 0-6 3-6 6l0 136c0 3 2 5 6 5l71 0c1 0 2 0 3-1 1-1 2-3 1-4z"/>
<glyph glyph-name="ds-13" unicode="&#114;" d="M95 348c1-1 3-1 4-1 3 0 5 1 7 3 4 6 7 12 12 17 2 3 1 7-1 10-3 2-7 1-10-1-5-6-9-12-13-18-3-4-2-8 1-10z m38 39c1 0 3 1 5 2 4 5 10 9 16 13 3 2 4 6 1 9-2 3-6 4-9 2-7-4-12-9-18-14-3-2-3-7-1-10 2-1 4-2 6-2z m-62-138c4 0 7 2 7 6l0 1c0 6 0 12 1 18 1 4-2 8-6 8-4 0-7-2-8-6-1-6-1-13-1-19l0-2c0-4 3-6 7-6z m5 50c1 0 2 0 2 0 3 0 5 3 7 6 1 6 4 13 6 19 2 4 0 8-4 10-4 1-8 0-9-4-3-8-5-14-8-21 0-5 2-9 6-10z m10-95c-2 6-4 13-5 20-1 4-4 6-8 6-4-1-7-5-6-8 2-8 3-15 5-22 1-3 4-5 6-5 1 0 2 0 3 0 4 2 6 5 5 9z m91 212c1 0 2 0 3 1 6 3 13 5 19 8 4 1 6 5 5 9-2 4-6 5-9 4-7-2-13-4-21-8-3-1-4-5-3-9 0-3 3-5 6-5z m237-78c1-3 4-4 6-4 1 0 2 0 3 0 3 2 5 7 3 10-3 6-7 13-11 19-2 3-6 4-9 2-4-3-4-7-2-10 3-5 6-11 10-17z m12-28c2-6 4-12 4-20 1-3 4-5 8-5 0 0 0 0 1 0 4 1 7 5 6 8-2 7-3 14-6 21-1 4-5 6-9 5-4-1-6-5-4-9z m-200 121c0 0 1 0 1 0 7 1 14 2 20 3 4 0 7 3 7 7 0 4-4 7-8 6-7 0-14-1-22-2-4-1-6-4-6-8 2-3 5-6 8-6z m52 2c7-1 14-3 20-4 1 0 1 0 2 0 3 0 6 2 7 5 1 4-1 8-5 9-8 2-15 3-22 4-4 1-7-2-8-6-1-4 2-8 6-8z m48-14c7-2 13-5 19-9 1-1 2-1 3-1 2 0 5 1 6 3 2 3 1 8-2 10-6 4-13 7-20 9-3 2-8 0-10-4 0-2 1-6 4-8z m69-30c-5 5-10 10-16 15-3 2-7 2-10-1-3-3-3-7 1-10 5-4 10-9 15-15 1-1 3-2 5-2 1 0 3 1 4 2 4 4 4 8 1 11z m21-227c-3 3-8 1-10-2-4-6-8-11-12-17-2-3-2-7 1-10 2-1 3-2 5-2 2 0 4 1 6 3 4 5 8 12 12 17 2 5 1 9-2 11z m-43-40c-5-4-11-8-16-12-3-3-4-7-2-10 2-2 4-3 6-3 1 0 2 1 4 1 6 4 12 9 17 14 4 2 4 7 1 10-3 2-7 3-10 0z m75 139c0 4-3 7-7 7-4 0-7-3-7-7 0-2 0-3 0-4 0-7 0-14-1-21-1-4 2-7 6-8 0 0 1 0 1 0 3 0 6 2 7 6 1 8 2 15 2 23-1 1-1 2-1 4z m-13-50c-4 1-8-1-9-5-1-6-4-12-7-19-1-4 0-8 4-9 1 0 2-1 3-1 2 0 5 1 6 4 3 7 6 13 7 21 3 4 0 8-4 9z m-105-117c-6-3-12-5-19-7-4-1-5-5-5-9 1-3 4-4 7-4 1 0 1 0 2 0 7 2 14 4 21 8 3 1 5 5 3 9-1 3-5 5-9 3z m-147 0c-6 2-12 5-18 9-3 3-8 1-10-2-2-3-1-8 3-10 6-4 12-7 20-10 0-1 1-1 3-1 2 0 5 2 6 4 2 4 0 8-4 10z m-57 41c-3 3-8 3-11 0-3-2-3-7 0-10 5-6 11-11 16-15 2-1 3-2 5-2 2 0 4 1 6 2 2 4 2 8-1 11-6 4-11 9-15 14z m-29 41c-2 3-7 5-10 3-3-1-5-6-3-9 3-7 7-13 11-20 2-2 4-3 6-3 1 0 2 0 4 1 3 2 4 6 2 10-3 6-7 12-10 18z m135-96c-6 1-14 2-20 4-4 1-8-2-9-5-1-4 2-8 5-9 7-1 14-3 22-4 0 0 0 0 0 0 4 0 7 3 8 7 0 3-2 6-6 7z m50 0c-6-1-13-2-20-2-4 0-8-3-8-7 0-4 4-7 8-7 7 0 14 1 22 2 4 1 6 4 6 8 0 4-4 7-8 6z m-10 89c-2-3-2-7 0-11 2-1 3-2 5-2 1 0 4 1 5 2l92 93c3 3 3 7 0 11l-92 92c-2 2-7 2-10 0-2-3-2-8 0-11l80-80-202 0c-4 0-8-3-8-7 0-4 4-7 8-7l203 0z"/>
<glyph glyph-name="ds-26" unicode="&#85;" d="M315 135l-118 0c-5 0-8 3-8 8l0 178-50 0c-3 0-6 1-7 5-1 3-1 6 2 8l116 120c4 3 9 3 12 0l116-120c3-2 4-5 2-8-2-4-4-5-7-5l-50 0 0-178c0-4-3-8-8-8z m-110 16l103 0 0 178c0 5 3 8 8 8l38 0-98 100-98-100 39 0c5 0 8-3 8-8z m243-95l-384 0c-5 0-8 3-8 8l0 86c0 5 3 8 8 8 5 0 8-3 8-8l0-78 368 0 0 78c0 5 3 8 8 8 5 0 8-3 8-8l0-86c0-5-3-8-8-8z"/>
<glyph glyph-name="ds-30" unicode="&#97;" d="M440 64l-368 0c-5 0-8 3-8 8l0 112c0 5 3 8 8 8l120 0c5 0 8-3 8-8l0-16c0-14 10-24 24-24l72 0c14 0 24 10 24 24l0 16c0 5 3 8 8 8l112 0c5 0 8-3 8-8l0-112c0-5-3-8-8-8z m-360 16l352 0 0 96-96 0 0-8c0-22-18-40-40-40l-72 0c-22 0-40 18-40 40l0 8-104 0z m-8 96c-2 0-2 0-4 1-4 2-5 7-3 11l56 96c1 2 4 4 7 4l56 0c5 0 8-3 8-8 0-5-3-8-8-8l-51 0-54-92c-1-2-5-4-7-4z m368 0c-2 0-6 2-7 4l-54 92-35 0c-5 0-8 3-8 8 0 5 3 8 8 8l40 0c3 0 6-2 7-4l56-96c3-4 1-9-3-11-2-1-2-1-4-1z m-176 80c-5 0-8 3-8 8l0 176c0 5 3 8 8 8 5 0 8-3 8-8l0-176c0-5-3-8-8-8z m64 112c-2 0-4 1-6 2l-58 59-58-59c-4-3-8-3-12 0-3 4-3 8 0 12l64 64c4 3 8 3 12 0l64-64c3-4 3-8 0-12-2-1-4-2-6-2z"/>
<glyph glyph-name="ds-31" unicode="&#101;" d="M256 64c-106 0-192 86-192 192 0 106 86 192 192 192 106 0 192-86 192-192 0-106-86-192-192-192z m0 368c-97 0-176-79-176-176 0-97 79-176 176-176 97 0 176 79 176 176 0 97-79 176-176 176z m0-224c-26 0-48 22-48 48 0 26 22 48 48 48 26 0 48-22 48-48 0-26-22-48-48-48z m0 80c-18 0-32-14-32-32 0-18 14-32 32-32 18 0 32 14 32 32 0 18-14 32-32 32z m0-24c-5 0-8-3-8-8 0-5 3-8 8-8 5 0 8 3 8 8 0 5-3 8-8 8z m134 14c-8 56-52 101-108 112l3 16c62-12 111-63 121-126z m-32-5c-7 43-40 77-83 85l3 16c50-9 88-48 96-99z m-31-6c-5 30-28 54-57 59l3 16c36-7 65-36 70-72z m-100-161c-62 12-111 63-121 126l16 2c8-56 52-101 108-112z m7 32c-50 10-88 49-96 100l16 2c7-43 40-78 83-86z m5 32c-36 7-65 36-70 72l16 3c5-30 28-54 57-59z"/>
<glyph glyph-name="ds-32" unicode="&#102;" d="M216 208c-1 0-2 0-3 1l-144 56c-3 1-5 4-5 7 0 3 2 6 5 7l368 152c3 2 8 0 9-3 3-3 2-7-1-10l-224-208c-1-1-3-2-5-2z m-122 64l120-47 188 175z m282-152c-2 0-2 0-4 1l-160 88c-2 1-4 3-4 6 0 3 1 5 2 7l224 208c3 3 7 4 10 1 3-1 5-5 4-9l-64-296c-1-2-2-4-5-5-1-1-2-1-3-1z m-146 98l140-78 56 261z m-14-138c-1 0-2 0-2 0-4 1-6 4-6 8l0 128 16 0 0-98 41 70 13-8-56-96c0-2-4-4-6-4z"/>
<glyph glyph-name="ds-33" unicode="&#103;" d="M258 248c-1 0-1 0-2 0-30 0-58 12-78 34-21 21-32 49-32 80l0 80c0 4 4 8 8 8l208-3c3 0 4-1 6-2 2-2 2-3 2-6l0-80-8 0 8 0c0-29-13-57-34-78-22-22-50-33-78-33z m-96 186l0-72c0-26 9-50 27-68 17-19 41-29 67-29 26 0 50 9 68 27 18 18 29 42 29 67l1 72z m196-372l-208 3c-3 0-4 1-6 2-2 2-2 3-2 6l0 80c1 62 52 112 114 111 62-1 111-52 110-114l-8 0 8 0 0-80c0-4-4-8-8-8z m-200 20l192-3 0 72c1 53-41 96-94 97-53 1-97-42-98-94z m236 348l-272 4c-4 0-8 4-8 8 0 4 4 8 8 8l272-4c5 0 8-4 8-8 0-4-4-8-8-8z m-4-368l-272 4c-5 0-8 4-8 8 0 4 4 8 8 8l272-4c4 0 8-4 8-8 0-4-4-8-8-8z m-32 64l-56 1c-2 0-4 1-5 3l-42 43-43-42c-2-1-3-2-6-2l-56 1c-4 0-8 4-8 8 0 4 4 8 8 8l53-1 47 45c1 1 3 2 5 2 3 0 4-1 6-2l45-47 52-1c5 0 8-4 8-8 0-4-3-8-8-8z m-21 161l-160 3c-5 0-8 4-8 8 0 4 4 8 8 8l160-3c5 0 8-4 8-8 0-5-4-8-8-8z"/>
<glyph glyph-name="ds-35" unicode="&#113;" d="M137 320c-1 1-1 3-1 6 0 4 2 8 3 8l233 0c2 0 3-4 3-8 0-5-1-8-3-8l-233 0c-1 0-1 0-2 2z m0-70c-1 2-1 4-1 6 0 5 2 8 3 8l233 0c2 0 3-3 3-8 0-5-1-8-3-8l-233 0c-1 0-1 1-2 2z m0-69c-1 1-1 4-1 5 0 5 2 8 3 8l233 0c2 0 3-3 3-8 0-4-1-8-3-8l-233 0c-1 0-1 1-2 3z"/>
<glyph glyph-name="whatsapp" unicode="&#109;" d="M486 260c0-124-101-225-226-225-39 0-77 11-109 28l-125-39 40 120c-20 34-32 73-32 116 0 124 101 224 226 224 125 0 226-100 226-224z m-226 189c-105 0-190-85-190-189 0-41 13-80 36-111l-24-70 74 23c30-19 66-31 104-31 105 0 190 85 190 189 0 104-85 189-190 189z m114-241c-1 2-5 4-10 7-6 2-33 16-38 17-5 2-9 3-13-2-3-6-14-18-17-22-3-4-7-4-12-1-6 3-24 8-45 27-16 15-27 33-31 38-3 6 0 9 3 11 2 3 5 7 8 10 3 3 4 6 6 9 2 4 1 7-1 10-1 3-12 30-17 41-4 11-9 9-12 9-4 0-7 0-11 0-4 0-10-1-15-7-5-5-19-18-19-45 0-28 20-54 22-57 3-4 39-61 95-83 57-22 57-15 67-14 10 1 33 13 37 26 5 13 5 24 3 26z"/>
<glyph glyph-name="facebook-alt" unicode="&#66;" d="M486 410c0 40-36 76-76 76l-308 0c-40 0-76-36-76-76l0-308c0-40 36-76 76-76l154 0 0 174-56 0 0 76 56 0 0 30c0 52 39 98 86 98l62 0 0-76-62 0c-6 0-14-9-14-21l0-31 76 0 0-76-76 0 0-174 82 0c40 0 76 36 76 76z"/>
<glyph glyph-name="heart-1" unicode="&#67;" d="M371 499c-44 0-92-27-115-86-22 58-70 85-113 85-80 0-122-77-122-152 0-75 40-156 115-236 56-59 112-96 114-98 2-1 4-1 6-1 2 0 5 0 7 2 9 7 228 178 228 346 0 92-60 140-120 140z"/>
<glyph glyph-name="ds-34" unicode="&#105;" d="M353 36l-231 116 161 324 223-116z m-210 123l203-101 140 296-196 100z m8-123l-145 317 223 115 33-69-14-7-26 54-196-100 133-288 94 43 6-15z m144 402l15-7-8-16-15 7z m-287 51l-1 2m327-394l15-7-8-16-15 7z m-19 221c10 4 19 3 31-2l5 10 8-4-6-10c10-6 17-14 20-22 3-8 2-16-3-26l-14 7c2 4 2 8 2 12-1 7-5 13-12 17l-20-39c10-10 17-18 20-23 4-8 4-17 0-28-8-14-17-22-29-23-7-1-15 1-26 5l-8-15-8 4 8 15c-15 9-23 20-23 33 0 7 2 15 6 24l15-7c-3-8-5-14-5-18 0-8 5-14 14-19l21 44c-10 8-17 16-20 24-3 8-2 17 3 25 5 7 12 12 21 16z m-6-39c2-5 5-9 11-13l19 37c-7 3-13 4-18 1-5-2-9-6-11-10-3-5-4-10-1-15z m13-75c4 2 7 6 8 10 4 6 4 12 0 19-1 3-5 8-11 13l-21-43c9-4 17-4 24 1z"/>
<glyph glyph-name="ds-03" unicode="&#118;" d="M362 331l-112-107-104 107-47 0 140-146c3-3 6-3 10-4 4 0 7 1 9 3l155 146-51 0z"/>
<glyph glyph-name="magnifier-1" unicode="&#69;" d="M509 18l-192 192c0 0 0 0 0 0 28 32 46 74 46 121 0 100-82 181-182 181-100 0-181-81-181-181 0-100 81-182 181-182 47 0 89 18 121 46 0 0 0 0 0 0l192-192c2-2 5-3 7-3 3 0 6 1 8 3 4 4 4 11 0 15z m-328 153c-88 0-160 71-160 160 0 88 72 160 160 160 89 0 160-72 160-160 0-89-71-160-160-160z"/>
<glyph glyph-name="calendar-2" unicode="&#68;" d="M501 469l-74 0 0 32c0 6-5 11-11 11l-64 0c-6 0-11-5-11-11l0-32-170 0 0 32c0 6-5 11-11 11l-64 0c-6 0-11-5-11-11l0-32-74 0c-6 0-11-4-11-10l0-448c0-6 5-11 11-11l490 0c6 0 11 5 11 11l0 448c0 6-5 10-11 10z m-138 22l42 0 0-64-42 0z m-256 0l42 0 0-64-42 0z m-22-43l0-32c0-6 5-11 11-11l64 0c6 0 11 5 11 11l0 32 170 0 0-32c0-6 5-11 11-11l64 0c6 0 11 5 11 11l0 32 64 0 0-85-470 0 0 85z m-64-427l0 320 470 0 0-320z m438 235c6 0 10 5 10 11 0 6-4 10-10 10l-75 0 0 32c0 6-5 11-11 11-6 0-10-5-10-11l0-32-96 0 0 32c0 6-5 11-11 11-6 0-11-5-11-11l0-32-96 0 0 32c0 6-4 11-10 11-6 0-11-5-11-11l0-32-75 0c-6 0-10-4-10-10 0-6 4-11 10-11l75 0 0-64-75 0c-6 0-10-5-10-11 0-6 4-10 10-10l75 0 0-64-75 0c-6 0-10-5-10-11 0-6 4-11 10-11l75 0 0-32c0-6 5-10 11-10 6 0 10 4 10 10l0 32 96 0 0-32c0-6 5-10 11-10 6 0 11 4 11 10l0 32 96 0 0-32c0-6 4-10 10-10 6 0 11 4 11 10l0 32 75 0c6 0 10 5 10 11 0 6-4 11-10 11l-75 0 0 64 75 0c6 0 10 4 10 10 0 6-4 11-10 11l-75 0 0 64z m-310 0l96 0 0-64-96 0z m0-149l0 64 96 0 0-64z m214 0l-96 0 0 64 96 0z m0 85l-96 0 0 64 96 0z"/>
</font>
</defs>
</svg>
